<mxfile host="app.diagrams.net" agent="Mozilla/5.0 (Macintosh; Intel Mac OS X 10_15_7) AppleWebKit/537.36 (KHTML, like Gecko) Chrome/135.0.0.0 Safari/537.36" version="27.0.6">
  <diagram name="Страница — 1" id="0maSJDkNxt07ryqt1H2F">
    <mxGraphModel dx="3912" dy="2912" grid="1" gridSize="10" guides="1" tooltips="1" connect="1" arrows="1" fold="1" page="1" pageScale="1" pageWidth="827" pageHeight="1169" math="0" shadow="0">
      <root>
        <mxCell id="0" />
        <mxCell id="1" parent="0" />
        <object placeholders="1" c4Name="Frontend" c4Type="ContainerScopeBoundary" c4Application="React SPA" label="&lt;font style=&quot;font-size: 16px&quot;&gt;&lt;b&gt;&lt;div style=&quot;text-align: left&quot;&gt;%c4Name%&lt;/div&gt;&lt;/b&gt;&lt;/font&gt;&lt;div style=&quot;text-align: left&quot;&gt;[%c4Application%]&lt;/div&gt;" id="0vgUIhdeMkAXDTte1ugr-2">
          <mxCell style="rounded=1;fontSize=11;whiteSpace=wrap;html=1;dashed=1;arcSize=20;fillColor=none;strokeColor=#666666;fontColor=#333333;labelBackgroundColor=none;align=left;verticalAlign=bottom;labelBorderColor=none;spacingTop=0;spacing=10;dashPattern=8 4;metaEdit=1;rotatable=0;perimeter=rectanglePerimeter;noLabel=0;labelPadding=0;allowArrows=0;connectable=0;expand=0;recursiveResize=0;editable=1;pointerEvents=0;absoluteArcSize=1;points=[[0.25,0,0],[0.5,0,0],[0.75,0,0],[1,0.25,0],[1,0.5,0],[1,0.75,0],[0.75,1,0],[0.5,1,0],[0.25,1,0],[0,0.75,0],[0,0.5,0],[0,0.25,0]];" vertex="1" parent="1">
            <mxGeometry y="-320" width="840" height="800" as="geometry" />
          </mxCell>
        </object>
        <object placeholders="1" c4Name="Backend" c4Type="ContainerScopeBoundary" c4Application="NestJS" label="&lt;font style=&quot;font-size: 16px&quot;&gt;&lt;b&gt;&lt;div style=&quot;text-align: left&quot;&gt;%c4Name%&lt;/div&gt;&lt;/b&gt;&lt;/font&gt;&lt;div style=&quot;text-align: left&quot;&gt;[%c4Application%]&lt;/div&gt;" id="0vgUIhdeMkAXDTte1ugr-3">
          <mxCell style="rounded=1;fontSize=11;whiteSpace=wrap;html=1;dashed=1;arcSize=20;fillColor=none;strokeColor=#666666;fontColor=#333333;labelBackgroundColor=none;align=left;verticalAlign=bottom;labelBorderColor=none;spacingTop=0;spacing=10;dashPattern=8 4;metaEdit=1;rotatable=0;perimeter=rectanglePerimeter;noLabel=0;labelPadding=0;allowArrows=0;connectable=0;expand=0;recursiveResize=0;editable=1;pointerEvents=0;absoluteArcSize=1;points=[[0.25,0,0],[0.5,0,0],[0.75,0,0],[1,0.25,0],[1,0.5,0],[1,0.75,0],[0.75,1,0],[0.5,1,0],[0.25,1,0],[0,0.75,0],[0,0.5,0],[0,0.25,0]];" vertex="1" parent="1">
            <mxGeometry y="600" width="840" height="600" as="geometry" />
          </mxCell>
        </object>
        <object placeholders="1" c4Name="External Storage" c4Type="ContainerScopeBoundary" c4Application="Внешнее хранилище react-компонентов (CDN/S3/FTP)" label="&lt;font style=&quot;font-size: 16px&quot;&gt;&lt;b&gt;&lt;div style=&quot;text-align: left&quot;&gt;%c4Name%&lt;/div&gt;&lt;/b&gt;&lt;/font&gt;&lt;div style=&quot;text-align: left&quot;&gt;[%c4Application%]&lt;/div&gt;" id="0vgUIhdeMkAXDTte1ugr-4">
          <mxCell style="rounded=1;fontSize=11;whiteSpace=wrap;html=1;dashed=1;arcSize=20;fillColor=none;strokeColor=#666666;fontColor=#333333;labelBackgroundColor=none;align=left;verticalAlign=bottom;labelBorderColor=none;spacingTop=0;spacing=10;dashPattern=8 4;metaEdit=1;rotatable=0;perimeter=rectanglePerimeter;noLabel=0;labelPadding=0;allowArrows=0;connectable=0;expand=0;recursiveResize=0;editable=1;pointerEvents=0;absoluteArcSize=1;points=[[0.25,0,0],[0.5,0,0],[0.75,0,0],[1,0.25,0],[1,0.5,0],[1,0.75,0],[0.75,1,0],[0.5,1,0],[0.25,1,0],[0,0.75,0],[0,0.5,0],[0,0.25,0]];" vertex="1" parent="1">
            <mxGeometry x="-530" y="400" width="440" height="290" as="geometry" />
          </mxCell>
        </object>
        <mxCell id="0vgUIhdeMkAXDTte1ugr-18" style="edgeStyle=orthogonalEdgeStyle;rounded=0;orthogonalLoop=1;jettySize=auto;html=1;entryX=0.5;entryY=0;entryDx=0;entryDy=0;entryPerimeter=0;" edge="1" parent="1" source="0vgUIhdeMkAXDTte1ugr-6" target="0vgUIhdeMkAXDTte1ugr-8">
          <mxGeometry relative="1" as="geometry">
            <Array as="points">
              <mxPoint x="150" y="-60" />
            </Array>
          </mxGeometry>
        </mxCell>
        <mxCell id="0vgUIhdeMkAXDTte1ugr-23" value="&lt;span style=&quot;background-color: rgb(255, 242, 204);&quot;&gt;Получает&amp;nbsp;&lt;/span&gt;&lt;div&gt;&lt;span style=&quot;background-color: rgb(255, 242, 204);&quot;&gt;зарегистрированные&amp;nbsp;&lt;/span&gt;&lt;/div&gt;&lt;div&gt;&lt;span style=&quot;background-color: rgb(255, 242, 204);&quot;&gt;компоненты по type&lt;/span&gt;&lt;/div&gt;" style="edgeLabel;html=1;align=center;verticalAlign=middle;resizable=0;points=[];" vertex="1" connectable="0" parent="0vgUIhdeMkAXDTte1ugr-18">
          <mxGeometry x="0.3125" y="-1" relative="1" as="geometry">
            <mxPoint x="1" y="13" as="offset" />
          </mxGeometry>
        </mxCell>
        <object placeholders="1" c4Name="Page Renderer" c4Type="Component" c4Technology="ReactJS" c4Description="Отрисовывает страницы на основе JSON конфигураций" label="&lt;font style=&quot;font-size: 16px&quot;&gt;&lt;b&gt;%c4Name%&lt;/b&gt;&lt;/font&gt;&lt;div&gt;[%c4Type%: %c4Technology%]&lt;/div&gt;&lt;br&gt;&lt;div&gt;&lt;font style=&quot;font-size: 11px&quot;&gt;%c4Description%&lt;/font&gt;&lt;/div&gt;" id="0vgUIhdeMkAXDTte1ugr-6">
          <mxCell style="rounded=1;whiteSpace=wrap;html=1;labelBackgroundColor=none;fillColor=#63BEF2;fontColor=#ffffff;align=center;arcSize=6;strokeColor=#2086C9;metaEdit=1;resizable=0;points=[[0.25,0,0],[0.5,0,0],[0.75,0,0],[1,0.25,0],[1,0.5,0],[1,0.75,0],[0.75,1,0],[0.5,1,0],[0.25,1,0],[0,0.75,0],[0,0.5,0],[0,0.25,0]];" vertex="1" parent="1">
            <mxGeometry x="280" y="-120" width="240" height="120" as="geometry" />
          </mxCell>
        </object>
        <mxCell id="0vgUIhdeMkAXDTte1ugr-20" style="edgeStyle=orthogonalEdgeStyle;rounded=0;orthogonalLoop=1;jettySize=auto;html=1;" edge="1" parent="1" source="0vgUIhdeMkAXDTte1ugr-8" target="0vgUIhdeMkAXDTte1ugr-10">
          <mxGeometry relative="1" as="geometry" />
        </mxCell>
        <mxCell id="0vgUIhdeMkAXDTte1ugr-33" value="&lt;span style=&quot;background-color: rgb(255, 242, 204);&quot;&gt;загружает компоненты&lt;/span&gt;&lt;div&gt;&lt;span style=&quot;background-color: rgb(255, 242, 204);&quot;&gt;сопоставляет &lt;code data-end=&quot;1487&quot; data-start=&quot;1481&quot;&gt;type&lt;/code&gt; компонентов&lt;/span&gt;&lt;div&gt;&lt;span style=&quot;background-color: rgb(255, 242, 204);&quot;&gt;с React-компонентами&lt;/span&gt;&lt;/div&gt;&lt;/div&gt;" style="edgeLabel;html=1;align=center;verticalAlign=middle;resizable=0;points=[];" vertex="1" connectable="0" parent="0vgUIhdeMkAXDTte1ugr-20">
          <mxGeometry x="-0.2019" relative="1" as="geometry">
            <mxPoint as="offset" />
          </mxGeometry>
        </mxCell>
        <object placeholders="1" c4Name="Component Registry " c4Type="Component" c4Technology="ReactJS" c4Description="реестр доступных UI-компонентов" label="&lt;font style=&quot;font-size: 16px&quot;&gt;&lt;b&gt;%c4Name%&lt;/b&gt;&lt;/font&gt;&lt;div&gt;[%c4Type%: %c4Technology%]&lt;/div&gt;&lt;br&gt;&lt;div&gt;&lt;font style=&quot;font-size: 11px&quot;&gt;%c4Description%&lt;/font&gt;&lt;/div&gt;" id="0vgUIhdeMkAXDTte1ugr-8">
          <mxCell style="rounded=1;whiteSpace=wrap;html=1;labelBackgroundColor=none;fillColor=#63BEF2;fontColor=#ffffff;align=center;arcSize=6;strokeColor=#2086C9;metaEdit=1;resizable=0;points=[[0.25,0,0],[0.5,0,0],[0.75,0,0],[1,0.25,0],[1,0.5,0],[1,0.75,0],[0.75,1,0],[0.5,1,0],[0.25,1,0],[0,0.75,0],[0,0.5,0],[0,0.25,0]];" vertex="1" parent="1">
            <mxGeometry x="30" y="80" width="240" height="120" as="geometry" />
          </mxCell>
        </object>
        <mxCell id="0vgUIhdeMkAXDTte1ugr-25" style="edgeStyle=orthogonalEdgeStyle;rounded=0;orthogonalLoop=1;jettySize=auto;html=1;entryX=1;entryY=0.5;entryDx=0;entryDy=0;entryPerimeter=0;" edge="1" parent="1" source="0vgUIhdeMkAXDTte1ugr-9" target="0vgUIhdeMkAXDTte1ugr-40">
          <mxGeometry relative="1" as="geometry" />
        </mxCell>
        <mxCell id="0vgUIhdeMkAXDTte1ugr-27" value="&lt;span style=&quot;background-color: rgb(255, 242, 204);&quot;&gt;GET /api/v1/page/[:slug] + JWT&lt;/span&gt;&lt;div&gt;&lt;span style=&quot;background-color: rgb(255, 242, 204);&quot;&gt;запрос страницы&lt;/span&gt;&lt;/div&gt;" style="edgeLabel;html=1;align=center;verticalAlign=middle;resizable=0;points=[];" vertex="1" connectable="0" parent="0vgUIhdeMkAXDTte1ugr-25">
          <mxGeometry x="-0.335" y="-1" relative="1" as="geometry">
            <mxPoint x="11" y="-80" as="offset" />
          </mxGeometry>
        </mxCell>
        <mxCell id="0vgUIhdeMkAXDTte1ugr-43" style="edgeStyle=orthogonalEdgeStyle;rounded=0;orthogonalLoop=1;jettySize=auto;html=1;exitX=0;exitY=0.5;exitDx=0;exitDy=0;exitPerimeter=0;" edge="1" parent="1" source="0vgUIhdeMkAXDTte1ugr-9" target="0vgUIhdeMkAXDTte1ugr-40">
          <mxGeometry relative="1" as="geometry" />
        </mxCell>
        <mxCell id="0vgUIhdeMkAXDTte1ugr-44" value="&lt;font style=&quot;color: rgb(0, 0, 0); background-color: rgb(255, 242, 204);&quot;&gt;POST /api/v1/auth/login&lt;/font&gt;&lt;div&gt;&lt;font style=&quot;color: rgb(0, 0, 0); background-color: rgb(255, 242, 204);&quot;&gt;для получения JWT&lt;/font&gt;&lt;/div&gt;" style="edgeLabel;html=1;align=center;verticalAlign=middle;resizable=0;points=[];" vertex="1" connectable="0" parent="0vgUIhdeMkAXDTte1ugr-43">
          <mxGeometry x="-0.0099" y="-2" relative="1" as="geometry">
            <mxPoint x="-1" y="-1" as="offset" />
          </mxGeometry>
        </mxCell>
        <object placeholders="1" c4Name="API-клиент" c4Type="Component" c4Technology="JavaScript" c4Description="формирует и обрабатывает запросы на клиенте" label="&lt;font style=&quot;font-size: 16px&quot;&gt;&lt;b&gt;%c4Name%&lt;/b&gt;&lt;/font&gt;&lt;div&gt;[%c4Type%: %c4Technology%]&lt;/div&gt;&lt;br&gt;&lt;div&gt;&lt;font style=&quot;font-size: 11px&quot;&gt;%c4Description%&lt;/font&gt;&lt;/div&gt;" id="0vgUIhdeMkAXDTte1ugr-9">
          <mxCell style="rounded=1;whiteSpace=wrap;html=1;labelBackgroundColor=none;fillColor=#63BEF2;fontColor=#ffffff;align=center;arcSize=6;strokeColor=#2086C9;metaEdit=1;resizable=0;points=[[0.25,0,0],[0.5,0,0],[0.75,0,0],[1,0.25,0],[1,0.5,0],[1,0.75,0],[0.75,1,0],[0.5,1,0],[0.25,1,0],[0,0.75,0],[0,0.5,0],[0,0.25,0]];" vertex="1" parent="1">
            <mxGeometry x="520" y="70" width="240" height="120" as="geometry" />
          </mxCell>
        </object>
        <mxCell id="0vgUIhdeMkAXDTte1ugr-34" style="edgeStyle=orthogonalEdgeStyle;rounded=0;orthogonalLoop=1;jettySize=auto;html=1;" edge="1" parent="1" source="0vgUIhdeMkAXDTte1ugr-10" target="0vgUIhdeMkAXDTte1ugr-30">
          <mxGeometry relative="1" as="geometry" />
        </mxCell>
        <mxCell id="0vgUIhdeMkAXDTte1ugr-35" value="&lt;span style=&quot;background-color: rgb(255, 242, 204);&quot;&gt;загружает JSX/TSX-файлы компонентов&amp;nbsp;&lt;/span&gt;&lt;div&gt;&lt;span style=&quot;background-color: rgb(255, 242, 204);&quot;&gt;в runtime (через &lt;code data-end=&quot;1618&quot; data-start=&quot;1608&quot;&gt;import()&lt;/code&gt;).&lt;/span&gt;&lt;/div&gt;" style="edgeLabel;html=1;align=center;verticalAlign=middle;resizable=0;points=[];" vertex="1" connectable="0" parent="0vgUIhdeMkAXDTte1ugr-34">
          <mxGeometry x="-0.2515" relative="1" as="geometry">
            <mxPoint as="offset" />
          </mxGeometry>
        </mxCell>
        <object placeholders="1" c4Name="Component Loader" c4Type="Component" c4Technology="JavaScript" c4Description="Реализует динамическую загрузку react-компонентов" label="&lt;font style=&quot;font-size: 16px&quot;&gt;&lt;b&gt;%c4Name%&lt;/b&gt;&lt;/font&gt;&lt;div&gt;[%c4Type%: %c4Technology%]&lt;/div&gt;&lt;br&gt;&lt;div&gt;&lt;font style=&quot;font-size: 11px&quot;&gt;%c4Description%&lt;/font&gt;&lt;/div&gt;" id="0vgUIhdeMkAXDTte1ugr-10">
          <mxCell style="rounded=1;whiteSpace=wrap;html=1;labelBackgroundColor=none;fillColor=#63BEF2;fontColor=#ffffff;align=center;arcSize=6;strokeColor=#2086C9;metaEdit=1;resizable=0;points=[[0.25,0,0],[0.5,0,0],[0.75,0,0],[1,0.25,0],[1,0.5,0],[1,0.75,0],[0.75,1,0],[0.5,1,0],[0.25,1,0],[0,0.75,0],[0,0.5,0],[0,0.25,0]];" vertex="1" parent="1">
            <mxGeometry x="30" y="280" width="240" height="120" as="geometry" />
          </mxCell>
        </object>
        <object placeholders="1" c4Name="Auth Service" c4Type="Container" c4Technology="NestJS" c4Description="Сервис авторизации/аутентификации" label="&lt;font style=&quot;font-size: 16px&quot;&gt;&lt;b&gt;%c4Name%&lt;/b&gt;&lt;/font&gt;&lt;div&gt;[%c4Type%:&amp;nbsp;%c4Technology%]&lt;/div&gt;&lt;br&gt;&lt;div&gt;&lt;font style=&quot;font-size: 11px&quot;&gt;&lt;font color=&quot;#E6E6E6&quot;&gt;%c4Description%&lt;/font&gt;&lt;/div&gt;" id="0vgUIhdeMkAXDTte1ugr-12">
          <mxCell style="shape=hexagon;size=50;perimeter=hexagonPerimeter2;whiteSpace=wrap;html=1;fixedSize=1;rounded=1;labelBackgroundColor=none;fillColor=#23A2D9;fontSize=12;fontColor=#ffffff;align=center;strokeColor=#0E7DAD;metaEdit=1;points=[[0.5,0,0],[1,0.25,0],[1,0.5,0],[1,0.75,0],[0.5,1,0],[0,0.75,0],[0,0.5,0],[0,0.25,0]];resizable=0;" vertex="1" parent="1">
            <mxGeometry x="40" y="840" width="200" height="170" as="geometry" />
          </mxCell>
        </object>
        <mxCell id="0vgUIhdeMkAXDTte1ugr-15" style="edgeStyle=orthogonalEdgeStyle;rounded=0;orthogonalLoop=1;jettySize=auto;html=1;" edge="1" parent="1" source="0vgUIhdeMkAXDTte1ugr-13" target="0vgUIhdeMkAXDTte1ugr-14">
          <mxGeometry relative="1" as="geometry" />
        </mxCell>
        <object placeholders="1" c4Name="Page Service" c4Type="Container" c4Technology="NestJS" c4Description="Сервис хранения конфигурации доступных страниц" label="&lt;font style=&quot;font-size: 16px&quot;&gt;&lt;b&gt;%c4Name%&lt;/b&gt;&lt;/font&gt;&lt;div&gt;[%c4Type%:&amp;nbsp;%c4Technology%]&lt;/div&gt;&lt;br&gt;&lt;div&gt;&lt;font style=&quot;font-size: 11px&quot;&gt;&lt;font color=&quot;#E6E6E6&quot;&gt;%c4Description%&lt;/font&gt;&lt;/div&gt;" id="0vgUIhdeMkAXDTte1ugr-13">
          <mxCell style="shape=hexagon;size=50;perimeter=hexagonPerimeter2;whiteSpace=wrap;html=1;fixedSize=1;rounded=1;labelBackgroundColor=none;fillColor=#23A2D9;fontSize=12;fontColor=#ffffff;align=center;strokeColor=#0E7DAD;metaEdit=1;points=[[0.5,0,0],[1,0.25,0],[1,0.5,0],[1,0.75,0],[0.5,1,0],[0,0.75,0],[0,0.5,0],[0,0.25,0]];resizable=0;" vertex="1" parent="1">
            <mxGeometry x="540" y="840" width="200" height="170" as="geometry" />
          </mxCell>
        </object>
        <object placeholders="1" c4Name="Page Config Store" c4Type="Container" c4Technology="PostgreSQL" c4Description="Хранит конфигурации страниц" label="&lt;font style=&quot;font-size: 16px&quot;&gt;&lt;b&gt;%c4Name%&lt;/b&gt;&lt;/font&gt;&lt;div&gt;[%c4Type%:&amp;nbsp;%c4Technology%]&lt;/div&gt;&lt;br&gt;&lt;div&gt;&lt;font style=&quot;font-size: 11px&quot;&gt;&lt;font color=&quot;#E6E6E6&quot;&gt;%c4Description%&lt;/font&gt;&lt;/div&gt;" id="0vgUIhdeMkAXDTte1ugr-14">
          <mxCell style="shape=cylinder3;size=15;whiteSpace=wrap;html=1;boundedLbl=1;rounded=0;labelBackgroundColor=none;fillColor=#23A2D9;fontSize=12;fontColor=#ffffff;align=center;strokeColor=#0E7DAD;metaEdit=1;points=[[0.5,0,0],[1,0.25,0],[1,0.5,0],[1,0.75,0],[0.5,1,0],[0,0.75,0],[0,0.5,0],[0,0.25,0]];resizable=0;" vertex="1" parent="1">
            <mxGeometry x="520" y="1070" width="240" height="120" as="geometry" />
          </mxCell>
        </object>
        <mxCell id="0vgUIhdeMkAXDTte1ugr-21" style="edgeStyle=orthogonalEdgeStyle;rounded=0;orthogonalLoop=1;jettySize=auto;html=1;entryX=0.5;entryY=0;entryDx=0;entryDy=0;entryPerimeter=0;exitX=1;exitY=0.5;exitDx=0;exitDy=0;exitPerimeter=0;" edge="1" parent="1" source="0vgUIhdeMkAXDTte1ugr-6" target="0vgUIhdeMkAXDTte1ugr-9">
          <mxGeometry relative="1" as="geometry" />
        </mxCell>
        <mxCell id="0vgUIhdeMkAXDTte1ugr-22" value="&lt;span style=&quot;background-color: rgb(255, 242, 204);&quot;&gt;Получает&amp;nbsp;&lt;/span&gt;&lt;div&gt;&lt;span style=&quot;background-color: rgb(255, 242, 204);&quot;&gt;конфигуарцию&amp;nbsp;&lt;/span&gt;&lt;/div&gt;&lt;div&gt;&lt;span style=&quot;background-color: rgb(255, 242, 204);&quot;&gt;страницы (JSON)&lt;/span&gt;&lt;/div&gt;" style="edgeLabel;html=1;align=center;verticalAlign=middle;resizable=0;points=[];" vertex="1" connectable="0" parent="0vgUIhdeMkAXDTte1ugr-21">
          <mxGeometry x="0.3155" y="-2" relative="1" as="geometry">
            <mxPoint x="2" y="15" as="offset" />
          </mxGeometry>
        </mxCell>
        <mxCell id="0vgUIhdeMkAXDTte1ugr-28" style="edgeStyle=orthogonalEdgeStyle;rounded=0;orthogonalLoop=1;jettySize=auto;html=1;entryX=1;entryY=0.5;entryDx=0;entryDy=0;entryPerimeter=0;" edge="1" parent="1" source="0vgUIhdeMkAXDTte1ugr-13" target="0vgUIhdeMkAXDTte1ugr-12">
          <mxGeometry relative="1" as="geometry" />
        </mxCell>
        <mxCell id="0vgUIhdeMkAXDTte1ugr-29" value="&lt;span style=&quot;background-color: rgb(255, 242, 204);&quot;&gt;Проверка прав доступа по JWT&lt;/span&gt;" style="edgeLabel;html=1;align=center;verticalAlign=middle;resizable=0;points=[];" vertex="1" connectable="0" parent="0vgUIhdeMkAXDTte1ugr-28">
          <mxGeometry x="0.0459" relative="1" as="geometry">
            <mxPoint as="offset" />
          </mxGeometry>
        </mxCell>
        <object placeholders="1" c4Name="React Components" c4Type="Component" c4Technology="React" c4Description="React-компоненты, созданные разработчиками" label="&lt;font style=&quot;font-size: 16px&quot;&gt;&lt;b&gt;%c4Name%&lt;/b&gt;&lt;/font&gt;&lt;div&gt;[%c4Type%: %c4Technology%]&lt;/div&gt;&lt;br&gt;&lt;div&gt;&lt;font style=&quot;font-size: 11px&quot;&gt;%c4Description%&lt;/font&gt;&lt;/div&gt;" id="0vgUIhdeMkAXDTte1ugr-30">
          <mxCell style="rounded=1;whiteSpace=wrap;html=1;labelBackgroundColor=none;fillColor=#63BEF2;fontColor=#ffffff;align=center;arcSize=6;strokeColor=#2086C9;metaEdit=1;resizable=0;points=[[0.25,0,0],[0.5,0,0],[0.75,0,0],[1,0.25,0],[1,0.5,0],[1,0.75,0],[0.75,1,0],[0.5,1,0],[0.25,1,0],[0,0.75,0],[0,0.5,0],[0,0.25,0]];" vertex="1" parent="1">
            <mxGeometry x="-440" y="470" width="240" height="120" as="geometry" />
          </mxCell>
        </object>
        <object placeholders="1" c4Name="Core App" c4Type="Component" c4Technology="ReactJS" c4Description="Основной модуль приложения, реализует роутинг и рендеринг страниц" label="&lt;font style=&quot;font-size: 16px&quot;&gt;&lt;b&gt;%c4Name%&lt;/b&gt;&lt;/font&gt;&lt;div&gt;[%c4Type%: %c4Technology%]&lt;/div&gt;&lt;br&gt;&lt;div&gt;&lt;font style=&quot;font-size: 11px&quot;&gt;%c4Description%&lt;/font&gt;&lt;/div&gt;" id="0vgUIhdeMkAXDTte1ugr-31">
          <mxCell style="rounded=1;whiteSpace=wrap;html=1;labelBackgroundColor=none;fillColor=#63BEF2;fontColor=#ffffff;align=center;arcSize=6;strokeColor=#2086C9;metaEdit=1;resizable=0;points=[[0.25,0,0],[0.5,0,0],[0.75,0,0],[1,0.25,0],[1,0.5,0],[1,0.75,0],[0.75,1,0],[0.5,1,0],[0.25,1,0],[0,0.75,0],[0,0.5,0],[0,0.25,0]];" vertex="1" parent="1">
            <mxGeometry x="280" y="-280" width="240" height="120" as="geometry" />
          </mxCell>
        </object>
        <mxCell id="0vgUIhdeMkAXDTte1ugr-32" style="edgeStyle=orthogonalEdgeStyle;rounded=0;orthogonalLoop=1;jettySize=auto;html=1;entryX=0.5;entryY=0;entryDx=0;entryDy=0;entryPerimeter=0;" edge="1" parent="1" source="0vgUIhdeMkAXDTte1ugr-31" target="0vgUIhdeMkAXDTte1ugr-6">
          <mxGeometry relative="1" as="geometry" />
        </mxCell>
        <mxCell id="0vgUIhdeMkAXDTte1ugr-38" style="edgeStyle=orthogonalEdgeStyle;rounded=0;orthogonalLoop=1;jettySize=auto;html=1;" edge="1" parent="1" source="0vgUIhdeMkAXDTte1ugr-37" target="0vgUIhdeMkAXDTte1ugr-31">
          <mxGeometry relative="1" as="geometry" />
        </mxCell>
        <mxCell id="0vgUIhdeMkAXDTte1ugr-50" value="&lt;span style=&quot;background-color: rgb(255, 242, 204);&quot;&gt;Делают запрос страниц&lt;/span&gt;&lt;div&gt;&lt;span style=&quot;background-color: rgb(255, 242, 204);&quot;&gt;&amp;nbsp;/[:slug]&lt;/span&gt;&lt;/div&gt;" style="edgeLabel;html=1;align=center;verticalAlign=middle;resizable=0;points=[];" vertex="1" connectable="0" parent="0vgUIhdeMkAXDTte1ugr-38">
          <mxGeometry x="-0.3306" relative="1" as="geometry">
            <mxPoint as="offset" />
          </mxGeometry>
        </mxCell>
        <object placeholders="1" c4Name="Гости" c4Type="Person" c4Description="Пользователи запрашивают страницы из браузера" label="&lt;font style=&quot;font-size: 16px&quot;&gt;&lt;b&gt;%c4Name%&lt;/b&gt;&lt;/font&gt;&lt;div&gt;[%c4Type%]&lt;/div&gt;&lt;br&gt;&lt;div&gt;&lt;font style=&quot;font-size: 11px&quot;&gt;&lt;font color=&quot;#cccccc&quot;&gt;%c4Description%&lt;/font&gt;&lt;/div&gt;" id="0vgUIhdeMkAXDTte1ugr-37">
          <mxCell style="html=1;fontSize=11;dashed=0;whiteSpace=wrap;fillColor=#6C6477;strokeColor=#4D4D4D;fontColor=#ffffff;shape=mxgraph.c4.person2;align=center;metaEdit=1;points=[[0.5,0,0],[1,0.5,0],[1,0.75,0],[0.75,1,0],[0.5,1,0],[0.25,1,0],[0,0.75,0],[0,0.5,0]];resizable=0;" vertex="1" parent="1">
            <mxGeometry x="300" y="-584" width="200" height="180" as="geometry" />
          </mxCell>
        </object>
        <object placeholders="1" c4Name="Администраторы" c4Type="Person" c4Description="Используют API микросервисов для авторизации и загрузки конфигураций страниц" label="&lt;font style=&quot;font-size: 16px&quot;&gt;&lt;b&gt;%c4Name%&lt;/b&gt;&lt;/font&gt;&lt;div&gt;[%c4Type%]&lt;/div&gt;&lt;br&gt;&lt;div&gt;&lt;font style=&quot;font-size: 11px&quot;&gt;&lt;font color=&quot;#cccccc&quot;&gt;%c4Description%&lt;/font&gt;&lt;/div&gt;" id="0vgUIhdeMkAXDTte1ugr-39">
          <mxCell style="html=1;fontSize=11;dashed=0;whiteSpace=wrap;fillColor=#083F75;strokeColor=#06315C;fontColor=#ffffff;shape=mxgraph.c4.person2;align=center;metaEdit=1;points=[[0.5,0,0],[1,0.5,0],[1,0.75,0],[0.75,1,0],[0.5,1,0],[0.25,1,0],[0,0.75,0],[0,0.5,0]];resizable=0;" vertex="1" parent="1">
            <mxGeometry x="970" y="600" width="200" height="180" as="geometry" />
          </mxCell>
        </object>
        <mxCell id="0vgUIhdeMkAXDTte1ugr-41" style="edgeStyle=orthogonalEdgeStyle;rounded=0;orthogonalLoop=1;jettySize=auto;html=1;exitX=0.5;exitY=1;exitDx=0;exitDy=0;exitPerimeter=0;" edge="1" parent="1" source="0vgUIhdeMkAXDTte1ugr-40" target="0vgUIhdeMkAXDTte1ugr-12">
          <mxGeometry relative="1" as="geometry" />
        </mxCell>
        <mxCell id="0vgUIhdeMkAXDTte1ugr-45" style="edgeStyle=orthogonalEdgeStyle;rounded=0;orthogonalLoop=1;jettySize=auto;html=1;exitX=0.5;exitY=1;exitDx=0;exitDy=0;exitPerimeter=0;" edge="1" parent="1" source="0vgUIhdeMkAXDTte1ugr-40" target="0vgUIhdeMkAXDTte1ugr-13">
          <mxGeometry relative="1" as="geometry" />
        </mxCell>
        <object placeholders="1" c4Name="API Gateway" c4Type="Container" c4Technology="NestJS" c4Description="Реализует API-шлюз на базе NestJS" label="&lt;font style=&quot;font-size: 16px&quot;&gt;&lt;b&gt;%c4Name%&lt;/b&gt;&lt;/font&gt;&lt;div&gt;[%c4Type%: %c4Technology%]&lt;/div&gt;&lt;br&gt;&lt;div&gt;&lt;font style=&quot;font-size: 11px&quot;&gt;&lt;font color=&quot;#E6E6E6&quot;&gt;%c4Description%&lt;/font&gt;&lt;/div&gt;" id="0vgUIhdeMkAXDTte1ugr-40">
          <mxCell style="rounded=1;whiteSpace=wrap;html=1;fontSize=11;labelBackgroundColor=none;fillColor=#23A2D9;fontColor=#ffffff;align=center;arcSize=10;strokeColor=#0E7DAD;metaEdit=1;resizable=0;points=[[0.25,0,0],[0.5,0,0],[0.75,0,0],[1,0.25,0],[1,0.5,0],[1,0.75,0],[0.75,1,0],[0.5,1,0],[0.25,1,0],[0,0.75,0],[0,0.5,0],[0,0.25,0]];" vertex="1" parent="1">
            <mxGeometry x="280" y="630" width="240" height="120" as="geometry" />
          </mxCell>
        </object>
        <mxCell id="0vgUIhdeMkAXDTte1ugr-48" style="edgeStyle=orthogonalEdgeStyle;rounded=0;orthogonalLoop=1;jettySize=auto;html=1;entryX=1;entryY=0.5;entryDx=0;entryDy=0;entryPerimeter=0;exitX=0;exitY=0.5;exitDx=0;exitDy=0;exitPerimeter=0;" edge="1" parent="1" source="0vgUIhdeMkAXDTte1ugr-39" target="0vgUIhdeMkAXDTte1ugr-40">
          <mxGeometry relative="1" as="geometry" />
        </mxCell>
        <mxCell id="0vgUIhdeMkAXDTte1ugr-49" value="&lt;span style=&quot;background-color: rgb(255, 242, 204);&quot;&gt;Загружают конфигурацию страниц&amp;nbsp;&lt;/span&gt;&lt;div&gt;&lt;span style=&quot;background-color: rgb(255, 242, 204);&quot;&gt;через API&lt;/span&gt;&lt;/div&gt;" style="edgeLabel;html=1;align=center;verticalAlign=middle;resizable=0;points=[];" vertex="1" connectable="0" parent="0vgUIhdeMkAXDTte1ugr-48">
          <mxGeometry x="-0.4556" y="1" relative="1" as="geometry">
            <mxPoint as="offset" />
          </mxGeometry>
        </mxCell>
      </root>
    </mxGraphModel>
  </diagram>
</mxfile>
